<svg xmlns="http://www.w3.org/2000/svg" version="1.1" xmlns:xlink="http://www.w3.org/1999/xlink" xmlns:svgjs="http://svgjs.com/svgjs" width="1440" height="1080" preserveAspectRatio="none" viewBox="0 0 1440 1080"><g mask="url(&quot;#SvgjsMask1019&quot;)" fill="none"><path d="M180.018,374.761C253.861,372.549,327.276,350.191,367.958,288.525C413.041,220.187,428.897,130.859,387.533,60.208C346.508,-9.864,261.056,-37.572,180.018,-32.48C107.539,-27.925,51.791,22.183,13.24,83.728C-28.608,150.537,-67.69,232.004,-28.494,300.402C10.829,369.022,100.964,377.129,180.018,374.761" fill="rgba(17, 94, 89, 0.56)" class="triangle-float1"></path><path d="M-72.29 -71.71 a0.58 0.58 0 1 0 1.16 0 a0.58 0.58 0 1 0 -1.16 0z" fill="rgba(17, 94, 89, 0.56)" class="triangle-float3"></path><path d="M154.53,348.872C229.931,351.028,314.412,333.847,349.085,266.856C382.213,202.85,336.893,132.372,297.984,71.707C263.328,17.673,218.637,-33.173,154.53,-36.486C85.057,-40.077,18.739,-4.183,-17.134,55.42C-54.143,116.911,-57.899,194.306,-21.661,256.254C14.247,317.637,83.445,346.839,154.53,348.872" fill="rgba(17, 94, 89, 0.56)" class="triangle-float2"></path><path d="M1509.855,635.472C1624.234,636.077,1697.308,526.091,1751.354,425.284C1801.605,331.555,1835.628,220.563,1781.329,129.119C1727.862,39.077,1614.575,18.899,1509.855,18.579C1404.399,18.257,1288.853,36.492,1235.491,127.451C1181.683,219.169,1222.211,329.188,1272.741,422.752C1326.821,522.888,1396.051,634.87,1509.855,635.472" fill="rgba(17, 94, 89, 0.56)" class="triangle-float1"></path><path d="M1303.216,207.303C1345.876,205.456,1375.523,170.265,1397.217,133.487C1419.392,95.894,1439.263,51.065,1417.791,13.066C1396.096,-25.328,1347.295,-34.227,1303.216,-32.866C1261.928,-31.591,1222.137,-15.266,1200.277,19.784C1177.086,56.968,1172.89,103.87,1193.978,142.285C1215.833,182.098,1257.841,209.267,1303.216,207.303" fill="rgba(17, 94, 89, 0.56)" class="triangle-float3"></path><path d="M1482.168,568.465C1591.255,570.024,1691.834,505.071,1742.143,408.265C1789.039,318.027,1765.692,211.863,1712.55,125.157C1662.117,42.872,1578.658,-13.912,1482.168,-15.906C1382.117,-17.973,1285.755,29.224,1234.684,115.283C1182.588,203.07,1185.828,311.421,1234.754,401.013C1285.911,494.69,1375.444,566.94,1482.168,568.465" fill="rgba(17, 94, 89, 0.56)" class="triangle-float1"></path><path d="M-129.47 849.48 a114.95 114.95 0 1 0 229.9 0 a114.95 114.95 0 1 0 -229.9 0z" fill="rgba(17, 94, 89, 0.56)" class="triangle-float1"></path><path d="M18.386,962.68C46.061,962.866,69.527,943.858,82.723,919.531C95.289,896.367,95.83,868.082,81.803,845.772C68.576,824.735,43.234,817.502,18.386,817.203C-7.128,816.896,-34.294,822.522,-47.731,844.213C-61.754,866.851,-57.449,895.424,-44.472,918.677C-31.112,942.614,-9.026,962.496,18.386,962.68" fill="rgba(17, 94, 89, 0.56)" class="triangle-float3"></path><path d="M129.004,1179.66C194.928,1180.666,253.314,1140.901,286.933,1084.184C321.286,1026.23,329.419,955.062,297.211,895.889C263.625,834.183,199.257,794.352,129.004,794.032C58.213,793.71,-8.982,831.661,-41.877,894.346C-72.811,953.295,-55,1022.376,-20.794,1079.489C12.286,1134.722,64.63,1178.678,129.004,1179.66" fill="rgba(17, 94, 89, 0.56)" class="triangle-float2"></path><path d="M1364.686,1177.718C1425.239,1176.826,1478.23,1140.169,1508.231,1087.562C1537.938,1035.47,1538.625,973.382,1511.801,919.749C1481.542,859.248,1432.33,801.085,1364.686,800.552C1296.423,800.015,1244.924,856.797,1213.502,917.4C1184.806,972.746,1182.315,1037.991,1213.624,1091.902C1244.796,1145.577,1302.623,1178.632,1364.686,1177.718" fill="rgba(17, 94, 89, 0.56)" class="triangle-float2"></path><path d="M1021.71 922.29 a260.58 260.58 0 1 0 521.16 0 a260.58 260.58 0 1 0 -521.16 0z" fill="rgba(17, 94, 89, 0.56)" class="triangle-float1"></path><path d="M979.27 964.73 a345.46 345.46 0 1 0 690.92 0 a345.46 345.46 0 1 0 -690.92 0z" fill="rgba(17, 94, 89, 0.56)" class="triangle-float3"></path></g><defs><mask id="SvgjsMask1019"><rect width="1440" height="1080" fill="#ffffff"></rect></mask><style>
            @keyframes float1 {
                0%{transform: translate(0, 0)}
                50%{transform: translate(-10px, 0)}
                100%{transform: translate(0, 0)}
            }

            .triangle-float1 {
                animation: float1 5s infinite;
            }

            @keyframes float2 {
                0%{transform: translate(0, 0)}
                50%{transform: translate(-5px, -5px)}
                100%{transform: translate(0, 0)}
            }

            .triangle-float2 {
                animation: float2 4s infinite;
            }

            @keyframes float3 {
                0%{transform: translate(0, 0)}
                50%{transform: translate(0, -10px)}
                100%{transform: translate(0, 0)}
            }

            .triangle-float3 {
                animation: float3 6s infinite;
            }
        </style></defs></svg>